<?xml version="1.0" encoding="iso-8859-1"?>
<!-- Uploaded to: SVG Repo, www.svgrepo.com, Generator: SVG Repo Mixer Tools -->
<svg fill="#000000" height="800px" width="800px" version="1.1" id="Layer_1" xmlns="http://www.w3.org/2000/svg" xmlns:xlink="http://www.w3.org/1999/xlink" 
	 viewBox="0 0 512.001 512.001" xml:space="preserve">
<g>
	<g>
		<path d="M429.889,0H82.112c-4.928,0-8.921,3.994-8.921,8.921s3.993,8.921,8.921,8.921h82v69.902
			c-20.351,22.681-31.52,51.784-31.52,82.365c0,38.962,18.153,73.757,46.44,96.392c-37.451,18.566-61.635,56.74-61.635,99.626
			v136.955c0,4.927,3.993,8.921,8.921,8.921h259.368c4.928,0,8.921-3.994,8.921-8.921V366.125c0-42.889-24.186-81.064-61.639-99.628
			c28.282-22.633,46.431-57.429,46.431-96.389c0-29.922-10.758-58.559-30.36-81.045V17.841h51.407v60.436l-10.704,42.343
			c-1.207,4.777,1.687,9.627,6.463,10.834c0.734,0.186,1.468,0.274,2.193,0.274c3.988,0,7.619-2.694,8.642-6.737l2.326-9.206
			l2.328,9.207c1.208,4.777,6.066,7.672,10.834,6.462c4.778-1.207,7.669-6.058,6.463-10.834l-10.705-42.343V17.841h11.6
			c4.928,0,8.921-3.994,8.921-8.921S434.817,0,429.889,0z M181.954,17.841H331.2v65.702h-0.001H181.954V17.841z M175.878,101.385
			h47.409c2.447,3.31,6.454,8.376,12.076,14.382c-15.518,19.799-58.529,35.353-84.258,42.629
			C153.431,137.338,161.988,117.556,175.878,101.385z M247.083,494.157H135.24V366.125c0-35.68,19.926-67.479,50.874-83.225
			l60.97,105.611V494.157z M206.975,283.351c15.037,6.536,31.616,10.168,49.03,10.168s33.995-3.635,49.031-10.172l-49.031,84.933
			L206.975,283.351z M376.768,366.125v128.034H264.926V388.512l60.97-105.611C356.842,298.645,376.768,330.446,376.768,366.125z
			 M256.005,275.678c-55.902,0-101.785-43.675-105.34-98.694c8.525-2.282,23.666-6.692,39.969-13.112
			c27.352-10.771,46.628-22.72,57.53-35.627c2.8,2.494,5.809,5.04,9.044,7.603c21.173,16.767,56.019,37.221,104.041,42.399
			C357.081,232.671,311.47,275.678,256.005,275.678z M361.102,160.261c-34.243-4.012-65.244-16.736-92.255-37.957
			c-9.537-7.492-17.01-14.892-22.453-20.919h89.697C350.388,118.033,359.082,138.535,361.102,160.261z"/>
	</g>
</g>
<g>
	<g>
		<path d="M209.055,184.008c-4.928,0-8.921,3.994-8.921,8.921v17.011c0,4.927,3.993,8.921,8.921,8.921
			c4.928,0,8.921-3.994,8.921-8.921v-17.011C217.976,188.002,213.983,184.008,209.055,184.008z"/>
	</g>
</g>
<g>
	<g>
		<path d="M304.1,184.008c-4.928,0-8.921,3.994-8.921,8.921v17.011c0,4.927,3.993,8.921,8.921,8.921
			c4.928,0,8.921-3.994,8.921-8.921v-17.011C313.02,188.002,309.027,184.008,304.1,184.008z"/>
	</g>
</g>
</svg>